<?xml version="1.0" encoding="utf-8"?>
<!-- Generator: Adobe Illustrator 24.0.1, SVG Export Plug-In . SVG Version: 6.00 Build 0)  -->
<svg version="1.1" id="Layer_1" xmlns="http://www.w3.org/2000/svg" xmlns:xlink="http://www.w3.org/1999/xlink" x="0px" y="0px"
	 viewBox="0 0 195 203.8" style="enable-background:new 0 0 195 203.8;" xml:space="preserve">
<style type="text/css">
	.st0{fill:#FFFFFF;}
</style>
<g>
	<path class="st0" d="M119.8,115.4l0.3-19.7l-30.6-0.5l16.1-15.3L81.6,55.5L56.9,79.1l15.6,15.8l-30.6-0.5l-0.4,22.4l-7.8-0.1
		l0.4-22.4L1.3,93.8L0.8,126l24.3,0.4l-0.2,12.4l-24.3-0.4l-0.5,32.2l32.8,0.5l0.4-22.4l7.8,0.1l-0.4,22.4l29.3,0.4l-11.4,10.8
		l20.6,20.9l21.3-20.3l-11-11.2l29.4,0.5l0.2-15.1l18.6,0.3l0.7-42L119.8,115.4z M110.1,124.8L96,124.6l0.2-13.8l14.1,0.2
		L110.1,124.8z"/>
	<rect x="135.9" y="61.7" class="st0" width="23.2" height="23.2"/>
	<rect x="161" y="1.4" class="st0" width="34.4" height="34.4"/>
</g>
</svg>
