<?xml version="1.0" encoding="utf-8"?>
<!-- Generator: Adobe Illustrator 27.0.0, SVG Export Plug-In . SVG Version: 6.00 Build 0)  -->
<svg version="1.1" id="svg2" xmlns="http://www.w3.org/2000/svg" xmlns:xlink="http://www.w3.org/1999/xlink" x="0px" y="0px"
	 viewBox="0 0 1589.7 1742.9" style="enable-background:new 0 0 1589.7 1742.9;" xml:space="preserve">
<style type="text/css">
	.st0{opacity:0.2;}
	.st1{fill:none;stroke:#000000;stroke-width:80;stroke-miterlimit:3.09;}
	.st2{fill:none;stroke:#808080;stroke-width:40;}
	.st3{fill:none;stroke:#000000;stroke-width:30;stroke-miterlimit:3.64;}
	.st4{fill:none;stroke:#000000;stroke-width:70;stroke-miterlimit:2.88;}
	.st5{fill:none;stroke:#808080;stroke-width:50;stroke-miterlimit:2.56;}
	.st6{fill:none;stroke:#000000;stroke-width:15;stroke-miterlimit:3.73;}
	.st7{fill:none;stroke:#808080;stroke-width:20;stroke-miterlimit:2.64;}
	.st8{fill:none;stroke:#808080;stroke-width:40;stroke-miterlimit:2.41;}
	.st9{fill:none;stroke:#000000;stroke-width:30;stroke-miterlimit:1.88;}
	.st10{fill:none;stroke:#000000;stroke-width:30;stroke-miterlimit:1.75;}
	.st11{fill:none;stroke:#808080;stroke-width:30;stroke-miterlimit:1.01;}
	.st12{fill:none;stroke:#808080;stroke-width:15;stroke-miterlimit:10;}
	.st13{fill:none;stroke:#000000;stroke-width:25;stroke-miterlimit:10;}
	.st14{fill:none;stroke:#000000;stroke-width:15;stroke-miterlimit:10;}
	.st15{fill:none;stroke:#808080;stroke-width:10;stroke-miterlimit:3.13;}
	.st16{fill:none;stroke:#808080;stroke-width:15;stroke-miterlimit:3.07;}
</style>
<g id="layer1" class="st0">
	<g id="g3965">
		<path id="path3849" class="st1" d="M75.1,1007C29.3,789.5,96.5,563.6,253.7,406.5"/>
		<path id="path3051" class="st2" d="M195.6,199.2C507.2-43,944.4-39.3,1251.9,208.1"/>
		<path id="path3821" class="st2" d="M1474.2,480c216.2,417.6,52.9,931.4-364.7,1147.6c-239.8,124.2-524.3,127.2-766.7,8.2"/>
		<path id="path3823" class="st3" d="M24.8,525.8c190.9-382.9,656-538.5,1038.9-347.6c150.1,74.8,271.8,196.3,346.9,346.3"/>
		<path id="path3825" class="st3" d="M1492.1,841.6c16.5,427.5-316.8,787.4-744.3,803.9c-78.3,3-156.7-5.9-232.3-26.4"/>
		<path id="path3829" class="st1" d="M479,259.4c262.8-102.6,561.7-26,742.8,190.3"/>
		<path id="path3835" class="st4" d="M1331.8,872.3c0,339-274.8,613.9-613.8,613.9s-613.8-274.8-613.8-613.9S379,258.4,718,258.4
			S1331.8,533.2,1331.8,872.3L1331.8,872.3z"/>
		<path id="path3837" class="st5" d="M347.2,473c33.8-31.5,71.5-58.5,112.1-80.5"/>
		<path id="path3839" class="st6" d="M1512.3,841.1c16.8,438.7-325.1,807.9-763.8,824.7c-254.5,9.8-498.3-103-655.6-303.3"/>
		<path id="path3843" class="st3" d="M276.3,1507.8c-63.4-44-119.8-97.2-167.5-157.9"/>
		<path id="path3845" class="st6" d="M6.7,516.7c195.9-392.9,673.2-552.5,1066-356.7c154.5,77,279.7,202.3,356.7,356.8"/>
		<path id="path3851" class="st1" d="M971.5,1477.6c-214,89.4-459.2,59.5-645.4-78.9"/>
		<path id="path3853" class="st1" d="M1366.7,976.2c-22.1,137.1-87.1,263.7-185.7,361.6"/>
		<path id="path3855" class="st5" d="M763.8,329c104,8.8,203.4,47.3,286.1,111"/>
		<path id="path3857" class="st5" d="M1256.6,950.7c-17.6,119.4-74.3,229.6-161.3,313.2"/>
		<path id="path3859" class="st5" d="M463.1,1352.4c-81.7-43.3-151-106.7-201.4-184.2"/>
		<path id="path3861" class="st7" d="M1274.6,953.5c-45.3,307.3-331.2,519.8-638.5,474.5c-159.6-23.5-301.5-114.5-389.5-249.7"/>
		<path id="path3863" class="st8" d="M999.1,441c237.7,155.2,304.6,473.8,149.3,711.5c-21.3,32.6-46.2,62.7-74.3,89.7"/>
		<path id="path3865" class="st8" d="M367.5,495.4C491,380.3,663.2,333.2,828,369.3"/>
		<path id="path3867" class="st9" d="M1102.8,983.8c-61.9,212.6-284.5,334.7-497.1,272.7c-199.4-58.1-321.4-258.9-281.1-462.6"/>
		<path id="path3869" class="st9" d="M427.4,595.2C580,434.8,833.8,428.3,994.2,580.9c81.1,77.1,126.3,184.6,124.6,296.5"/>
		<path id="path3871" class="st10" d="M345.8,890.2c-10.3-205.5,147.9-380.5,353.4-390.9s380.5,147.9,390.9,353.4
			c5.3,105.7-34.6,208.7-109.7,283.2"/>
		<path id="path3873" class="st11" d="M591.3,697.7c95.9-70,230.5-49,300.4,47s49,230.5-47,300.4c-14.1,10.3-29.4,18.8-45.6,25.4"/>
		<path id="path3875" class="st11" d="M611.8,1058.4c-85.3-48.5-127-148.5-101.3-243.2"/>
		<path id="path3877" class="st12" d="M603,714c87-63.5,209-44.5,272.5,42.4s44.5,209-42.4,272.5s-209,44.6-272.5-42.4
			c-35-47.9-46.3-109.1-30.7-166.3"/>
		<path id="path3879" class="st13" d="M647.4,771.6c31-22,70.5-28.2,106.8-17"/>
		<path id="path3883" class="st13" d="M817,799.6c33.6,46.3,30.6,109.6-7.2,152.6"/>
		<path id="path3885" class="st13" d="M737.7,992.2c-43.4,7-87.2-9.7-114.8-43.9"/>
		<path id="path3887" class="st13" d="M597.6,892.7c-4.3-24.4-1.1-49.5,9.2-72.1"/>
		<path id="path3889" class="st14" d="M579.6,895.6c-13.4-76.4,37.8-149.2,114.2-162.6c21.8-3.8,44.3-2.4,65.5,4.1"/>
		<path id="path3891" class="st14" d="M653.3,780.1c50.4-35.8,120.3-23.9,156,26.5c30,42.4,27,99.8-7.3,138.8"/>
		<path id="path3847" class="st15" d="M1383.6,871.4c0,367.6-298,665.6-665.6,665.6S52.4,1239,52.4,871.4s298-665.6,665.6-665.6
			S1383.6,503.8,1383.6,871.4L1383.6,871.4z"/>
		<path id="path3959" class="st16" d="M971,1474.7c-171.2,71.8-364.9,67.4-532.8-12"/>
		<path id="path3961" class="st16" d="M1278.8,534.6c67.4,112.2,99.6,242.1,92.4,372.9"/>
		<path id="path3963" class="st16" d="M64.3,896.1c-5.6-149.6,40.2-296.6,129.9-416.5"/>
	</g>
</g>
</svg>
