<?xml version="1.0" encoding="utf-8"?>
<!-- Generator: Adobe Illustrator 16.0.0, SVG Export Plug-In . SVG Version: 6.00 Build 0)  -->
<!DOCTYPE svg PUBLIC "-//W3C//DTD SVG 1.1//EN" "http://www.w3.org/Graphics/SVG/1.1/DTD/svg11.dtd">
<svg version="1.1" xmlns="http://www.w3.org/2000/svg" xmlns:xlink="http://www.w3.org/1999/xlink" x="0px" y="0px" width="338.5px"
	 height="338.5px" viewBox="0 0 338.5 338.5" enable-background="new 0 0 338.5 338.5" xml:space="preserve">
<g id="Heads" display="none">
	<g display="inline">
		<g>
			<g>
				<path fill="#FFFFFF" d="M79.214,197.207H67.3v-48.161h11.914v18.773h13.069v-18.773h11.914v48.161H92.283v-20.939H79.214
					V197.207z"/>
			</g>
			<g>
				<path fill="#FFFFFF" d="M144.919,149.046V158h-19.712v9.82h16.246v8.953h-16.246v11.481h20.939v8.953h-32.854v-48.161H144.919z"
					/>
			</g>
			<g>
				<path fill="#FFFFFF" d="M161.235,197.207h-11.553l13.358-48.161h15.019l13.069,48.161h-12.275l-2.815-11.336h-11.914
					L161.235,197.207z M174.088,177.423l-2.888-13.286c-0.723-3.754-0.866-4.837-1.083-7.22c-0.289,2.166-0.65,4.621-1.083,7.22
					l-2.889,13.286H174.088z"/>
			</g>
			<g>
				<path fill="#FFFFFF" d="M209.685,149.046c7.653,0,11.264,0.722,14.513,2.888c5.849,3.827,9.17,11.48,9.17,21.012
					c0,7.509-2.311,14.224-6.354,18.629c-3.827,4.188-8.159,5.632-16.463,5.632h-15.308v-48.161H209.685z M207.157,188.254h2.094
					c8.448,0,11.77-4.044,11.77-14.369c0-5.993-0.578-9.386-2.094-11.841c-1.661-2.671-4.549-4.043-8.737-4.043h-3.032V188.254z"/>
			</g>
			<g>
				<path fill="#FFFFFF" d="M261.165,162.838c-0.145-3.899-2.238-6.282-5.56-6.282c-2.961,0-5.199,2.094-5.199,4.91
					c0,3.104,1.733,4.404,8.231,5.993c5.344,1.299,8.231,2.599,10.687,4.621c2.888,2.382,4.477,5.993,4.477,10.397
					c0,9.964-6.498,15.668-17.906,15.668c-10.759,0-16.463-4.332-18.124-13.719l11.265-2.383c0.866,5.199,3.177,7.654,7.075,7.654
					c3.322,0,5.776-2.311,5.776-5.343c0-3.249-1.732-4.549-8.087-6.282c-4.765-1.228-7.437-2.311-9.603-3.754
					c-3.394-2.238-5.416-6.426-5.416-11.12c0-9.098,6.86-15.091,17.186-15.091c9.386,0,15.307,4.693,16.174,12.925L261.165,162.838z
					"/>
			</g>
		</g>
		<g>
			<path fill="#FFFFFF" d="M169.25,334.75c-91.257,0-165.5-74.243-165.5-165.5S77.993,3.75,169.25,3.75s165.5,74.243,165.5,165.5
				S260.507,334.75,169.25,334.75z M169.25,28.75c-77.472,0-140.5,63.028-140.5,140.5s63.028,140.5,140.5,140.5
				c77.472,0,140.5-63.028,140.5-140.5S246.722,28.75,169.25,28.75z"/>
		</g>
	</g>
</g>
<g id="Tails">
	<g>
		<g>
			<g>
				<path fill="#FFFFFF" d="M119.803,149.93v8.954H106.95v39.207H95.037v-39.207h-12.78v-8.954H119.803z"/>
			</g>
			<g>
				<path fill="#FFFFFF" d="M128.25,198.091h-11.553l13.358-48.161h15.019l13.069,48.161h-12.275l-2.816-11.336h-11.914
					L128.25,198.091z M141.103,178.307l-2.888-13.286c-0.722-3.754-0.867-4.837-1.083-7.22c-0.289,2.166-0.649,4.621-1.083,7.22
					l-2.888,13.286H141.103z"/>
			</g>
			<g>
				<path fill="#FFFFFF" d="M174.171,198.091h-11.914V149.93h11.914V198.091z"/>
			</g>
			<g>
				<path fill="#FFFFFF" d="M195.254,189.138h18.629v8.953H183.34V149.93h11.914V189.138z"/>
			</g>
			<g>
				<path fill="#FFFFFF" d="M240.453,163.722c-0.145-3.899-2.238-6.282-5.56-6.282c-2.961,0-5.199,2.094-5.199,4.91
					c0,3.104,1.733,4.404,8.231,5.993c5.344,1.299,8.231,2.599,10.687,4.621c2.889,2.382,4.477,5.993,4.477,10.397
					c0,9.964-6.498,15.668-17.906,15.668c-10.759,0-16.463-4.332-18.124-13.719l11.265-2.383c0.866,5.199,3.177,7.654,7.075,7.654
					c3.322,0,5.776-2.311,5.776-5.343c0-3.249-1.732-4.549-8.087-6.282c-4.765-1.228-7.437-2.311-9.603-3.754
					c-3.394-2.238-5.416-6.426-5.416-11.12c0-9.098,6.859-15.091,17.186-15.091c9.386,0,15.307,4.693,16.174,12.925L240.453,163.722
					z"/>
			</g>
		</g>
		<g>
			<path fill="#FFFFFF" d="M169.25,334.75c-91.257,0-165.5-74.243-165.5-165.5S77.993,3.75,169.25,3.75s165.5,74.243,165.5,165.5
				S260.507,334.75,169.25,334.75z M169.25,28.75c-77.472,0-140.5,63.028-140.5,140.5s63.028,140.5,140.5,140.5
				c77.472,0,140.5-63.028,140.5-140.5S246.722,28.75,169.25,28.75z"/>
		</g>
	</g>
</g>
</svg>
